<?xml version="1.0" encoding="UTF-8"?>
<svg id="Layer_2" data-name="Layer 2" xmlns="http://www.w3.org/2000/svg" viewBox="0 0 118.49 13.54">
  <defs>
    <style>
      .cls-1 {
        fill: #fff;
      }
    </style>
  </defs>
  <g id="Layer_1-2" data-name="Layer 1">
    <path class="cls-1" d="m7.62,1.92h0C4.48,1.92,1.57,3.59,0,6.32h0s2.54,4.4,2.54,4.4h0c3.14,0,6.05-1.68,7.62-4.4h0S7.62,1.92,7.62,1.92ZM3.54,7.53c-.04.09-.09.16-.17.21-.08.05-.17.08-.26.08h-1l1.61-3.96c.04-.09.09-.16.17-.21.08-.05.17-.08.27-.08h1l-.49,1.2h1.36l-.35.86c-.05.11-.12.21-.22.27-.1.07-.21.1-.33.1h-.79c-.05,0-.1.01-.14.04-.04.03-.07.07-.09.11l-.56,1.37Zm2.92,1.23c-.04.09-.09.16-.17.21-.08.05-.17.08-.27.08h-1l.49-1.2h-1.36l.35-.86c.05-.11.12-.21.22-.27.1-.07.21-.1.33-.1h.79c.05,0,.1-.01.14-.04.04-.03.07-.07.09-.11l.56-1.37c.04-.09.09-.16.17-.21.08-.05.17-.08.26-.08h1l-1.61,3.96Z"/>
    <g>
      <path class="cls-1" d="m11.99,10.5l2.7-6.64c.1-.26.27-.46.49-.61.22-.15.47-.22.74-.22h7.13l-.89,2.18c-.1.26-.27.46-.5.61s-.48.23-.76.23h-3.59c-.19,0-.33.09-.41.28l-1.69,4.16h-3.23Z"/>
      <path class="cls-1" d="m24.31,3.76c.09-.22.23-.39.43-.52.2-.13.41-.2.65-.2h2.44l-1.81,4.44h2.86c.19,0,.33-.09.41-.28l1.4-3.44c.09-.22.23-.39.43-.52.2-.13.41-.2.65-.2h2.44l-2.7,6.64c-.1.26-.27.46-.49.61-.22.15-.47.22-.74.22h-8.69l2.74-6.74Z"/>
      <path class="cls-1" d="m32.54,10.5l2.7-6.64c.1-.26.27-.46.49-.61.22-.15.47-.22.74-.22h8.69l-2.74,6.74c-.09.22-.23.39-.43.52-.2.13-.41.2-.65.2h-2.44l1.81-4.44h-2.86c-.19,0-.33.09-.41.28l-1.4,3.44c-.09.22-.23.39-.43.52-.2.13-.41.2-.64.2h-2.45Z"/>
      <path class="cls-1" d="m46.2,3.86c.1-.26.27-.46.49-.61.22-.15.47-.22.74-.22h2.33l-2.75,6.74c-.09.22-.23.39-.43.52-.2.13-.41.2-.64.2h-2.45l2.7-6.64Zm.54-1.24l.77-1.91c.09-.22.23-.39.43-.52.2-.13.41-.2.65-.2h2.44l-.78,1.9c-.09.22-.23.4-.43.53-.2.13-.41.2-.64.2h-2.44Z"/>
      <path class="cls-1" d="m48.34,10.5l2.7-6.64c.1-.26.27-.46.49-.61.22-.15.47-.22.74-.22h8.69l-2.74,6.74c-.09.22-.23.39-.43.52-.2.13-.41.2-.65.2h-2.44l1.81-4.44h-2.86c-.19,0-.33.09-.41.28l-1.4,3.44c-.09.22-.23.39-.43.52-.2.13-.41.2-.64.2h-2.45Z"/>
      <path class="cls-1" d="m59.14,10.5l.89-2.18c.1-.26.27-.46.5-.61s.48-.23.75-.23h2.9l-1.56-1.15c-.11-.08-.18-.18-.22-.31-.03-.12-.02-.25.02-.38l.72-1.78c.1-.26.27-.46.49-.61.22-.15.47-.22.74-.22h7.13l-.89,2.18c-.1.26-.27.46-.5.61s-.48.23-.76.23h-2.89l1.56,1.15c.11.08.18.18.22.31.03.12.02.25-.02.37l-.73,1.79c-.1.26-.27.46-.49.61-.22.15-.47.22-.74.22h-7.13Z"/>
      <path class="cls-1" d="m72.38,3.86c.1-.26.27-.46.49-.61.22-.15.47-.22.74-.22h2.33l-2.75,6.74c-.09.22-.23.39-.43.52-.2.13-.41.2-.64.2h-2.45l2.7-6.64Zm.54-1.24l.77-1.91c.09-.22.23-.39.43-.52.2-.13.41-.2.65-.2h2.44l-.78,1.9c-.09.22-.23.4-.43.53-.2.13-.41.2-.64.2h-2.44Z"/>
      <path class="cls-1" d="m75.03,9.52l2.3-5.65c.1-.26.27-.46.49-.61.22-.15.47-.22.74-.22h9.59c-.69,1.69-1.3,3.2-1.84,4.52l-1.85,4.54c-.21.44-.51.79-.92,1.05-.4.26-.85.39-1.35.39h-6.06l.91-2.28c.09-.23.23-.41.43-.55.2-.13.42-.2.66-.2h3.19c.17,0,.32-.05.46-.14.14-.09.24-.22.31-.38l.19-.48h-7.27Zm8-2.53c.09,0,.17-.02.25-.07.08-.05.13-.11.16-.19l.47-1.15h-3.76c-.19,0-.33.09-.41.28l-.47,1.14h3.76Z"/>
      <path class="cls-1" d="m86.5,10.5l3.96-9.78c.09-.22.23-.39.43-.52.2-.13.42-.2.65-.2h2.46l-1.24,3.04h7.26l-2.74,6.74c-.09.22-.23.39-.43.52-.2.13-.41.2-.65.2h-2.44l1.81-4.44h-3.62c-.13,0-.24.04-.35.11-.1.07-.18.16-.23.28l-1.34,3.34c-.09.22-.23.39-.43.52-.2.13-.41.2-.65.2h-2.46Z"/>
      <path class="cls-1" d="m102.14.83c.09-.22.23-.39.43-.52.2-.13.41-.2.65-.2h2.44l-1.19,2.93h3.31l-.85,2.11c-.11.28-.29.5-.53.67s-.51.25-.81.25h-1.93c-.13,0-.24.04-.35.11-.1.07-.18.16-.23.28l-1.36,3.34c-.09.22-.23.39-.43.52-.2.13-.41.2-.64.2h-2.45l3.94-9.67Z"/>
      <path class="cls-1" d="m106.12,10.5l.89-2.18c.1-.26.27-.46.5-.61.23-.15.48-.23.75-.23h2.9l-1.56-1.15c-.11-.08-.18-.18-.22-.31s-.02-.25.02-.38l.72-1.78c.1-.26.27-.46.49-.61.22-.15.47-.22.74-.22h7.13l-.89,2.18c-.1.26-.27.46-.5.61-.23.15-.48.23-.76.23h-2.89l1.56,1.15c.11.08.18.18.22.31.03.12.02.25-.02.37l-.73,1.79c-.1.26-.27.46-.49.61-.22.15-.47.22-.74.22h-7.13Z"/>
    </g>
  </g>
</svg>